HIERARCHY
ROOT Hips
{
	OFFSET	0.000000	0.000000	0.000000
	CHANNELS 6 Xposition Yposition Zposition Zrotation Xrotation Yrotation
	JOINT LeftHip
	{
		OFFSET	4.740440	-3.195970	-0.322709
		CHANNELS 3 Zrotation Xrotation Yrotation
		JOINT LeftKnee
		{
			OFFSET	-1.605680	-15.592300	1.005510
			CHANNELS 3 Zrotation Xrotation Yrotation
			JOINT LeftAnkle
			{
				OFFSET	-0.632401	-16.421000	-1.413730
				CHANNELS 3 Zrotation Xrotation Yrotation
				End Site
				{
					OFFSET	0.008423	-2.933000	-1.684880
				}
			}
		}
	}
	JOINT RightHip
	{
		OFFSET	-4.740440	-3.195970	-0.322709
		CHANNELS 3 Zrotation Xrotation Yrotation
		JOINT RightKnee
		{
			OFFSET	1.605680	-15.592300	1.005510
			CHANNELS 3 Zrotation Xrotation Yrotation
			JOINT RightAnkle
			{
				OFFSET	0.632401	-16.421000	-1.413730
				CHANNELS 3 Zrotation Xrotation Yrotation
				End Site
				{
					OFFSET	-0.008423	-2.933000	-1.684880
				}
			}
		}
	}
	JOINT Chest
	{
		OFFSET	0.000000	3.468200	0.078401
		CHANNELS 3 Zrotation Xrotation Yrotation
		JOINT LeftCollar
		{
			OFFSET	3.857650	15.070700	-0.011583
			CHANNELS 3 Zrotation Xrotation Yrotation
			JOINT LeftShoulder
			{
				OFFSET	3.979720	-1.940530	-0.165223
				CHANNELS 3 Zrotation Xrotation Yrotation
				JOINT LeftElbow
				{
					OFFSET	0.615844	-10.986600	-0.673886
					CHANNELS 3 Zrotation Xrotation Yrotation
					JOINT LeftWrist
					{
						OFFSET	0.826843	-10.854500	1.034220
						CHANNELS 3 Zrotation Xrotation Yrotation
						End Site
						{
							OFFSET	-1.679080	-8.456540	0.936217
						}
					}
				}
			}
		}
		JOINT RightCollar
		{
			OFFSET	-3.857650	15.070700	-0.011583
			CHANNELS 3 Zrotation Xrotation Yrotation
			JOINT RightShoulder
			{
				OFFSET	-3.979720	-1.940530	-0.165223
				CHANNELS 3 Zrotation Xrotation Yrotation
				JOINT RightElbow
				{
					OFFSET	-0.615845	-10.986600	-0.673886
					CHANNELS 3 Zrotation Xrotation Yrotation
					JOINT RightWrist
					{
						OFFSET	-0.826843	-10.854500	1.034220
						CHANNELS 3 Zrotation Xrotation Yrotation
						End Site
						{
							OFFSET	1.679080	-8.456540	0.936217
						}
					}
				}
			}
		}
		JOINT Neck
		{
			OFFSET	0.000000	15.101400	0.055730
			CHANNELS 3 Zrotation Xrotation Yrotation
			JOINT Head
			{
				OFFSET	0.000000	4.185120	1.488260
				CHANNELS 3 Zrotation Xrotation Yrotation
				End Site
				{
					OFFSET	0.000000	7.773420	-0.106016
				}
			}
		}
	}
}
MOTION
Frames:     13
Frame Time: 0.016667
-9.991002	18.048794	0.531276	7.647660	-18.050280	-23.403629	65.448639	-30.175528	49.833710	9.695384	122.237015	-48.418423	2.025367	-26.631086	-2.095020	-16.851528	-7.134097	0.768634	-17.646038	126.497879	51.289310	-12.406342	-2.675504	-18.110958	-5.863475	41.555210	5.289820	14.438266	-13.672029	-2.370701	50.290558	-6.438720	-3.355022	-80.552711	-19.722734	-77.891876	81.508873	-41.012054	15.470772	-9.054608	0.283433	-2.466509	-24.095629	14.209921	19.212193	41.460838	-39.864777	72.902504	-68.688141	-26.393391	8.760308	-12.070315	-3.649923	-4.695033	2.814785	-3.402175	-13.609200	
-10.003247	18.043867	0.537920	7.635837	-18.048311	-23.430382	65.463898	-30.153425	49.841999	9.595743	122.231400	-48.337254	2.003059	-26.663078	-2.070253	-16.847641	-7.137362	0.786849	-17.631865	126.495827	51.284100	-12.555216	-2.511579	-18.385201	-5.831578	41.504547	5.261118	14.422984	-13.618274	-2.358798	50.284260	-6.431761	-3.353912	-80.552071	-19.721773	-77.888779	81.508942	-41.014595	15.470879	-9.065670	0.315706	-2.415478	-24.110060	14.227774	19.220022	41.487946	-39.849861	72.914001	-68.714897	-26.385489	8.745584	-12.097667	-3.499600	-4.630764	2.686192	-3.378591	-13.454550	
-10.006131	18.042904	0.539182	7.624049	-18.046331	-23.457109	65.479134	-30.131329	49.850300	9.563561	122.230202	-48.311153	1.994724	-26.668816	-2.063309	-16.844872	-7.139226	0.799337	-17.617577	126.493004	51.276520	-12.599510	-2.465683	-18.460014	-5.817384	41.487640	5.273772	14.413175	-13.605857	-2.367727	50.277493	-6.421393	-3.353274	-80.552071	-19.721773	-77.888779	81.508942	-41.014595	15.470879	-9.074344	0.331044	-2.403630	-24.115786	14.232440	19.227539	41.491249	-39.850044	72.909348	-68.724205	-26.382828	8.740896	-12.101650	-3.481980	-4.594559	2.626208	-3.308422	-13.412167	
-10.013679	18.040293	0.545558	7.611928	-18.044285	-23.484592	65.487450	-30.118378	49.848938	9.490306	122.230240	-48.246044	1.969418	-26.682598	-2.044405	-16.840338	-7.139385	0.806399	-17.617346	126.492554	51.275242	-12.665376	-2.428868	-18.590689	-5.783856	41.456451	5.271984	14.390162	-13.578234	-2.378792	50.329639	-6.441709	-3.313581	-80.600479	-19.659643	-77.864006	81.551903	-41.059891	15.499314	-9.086589	0.348030	-2.380984	-24.131775	14.251409	19.234098	41.520546	-39.834351	72.922211	-68.751488	-26.374447	8.728233	-12.118741	-3.351161	-4.523799	2.487342	-3.220309	-13.267116	
-10.010287	18.041546	0.544706	7.605607	-18.043205	-23.498947	65.479279	-30.129553	49.830723	9.507403	122.235870	-48.246315	1.960810	-26.686909	-2.038393	-16.847162	-7.140078	0.811099	-17.605591	126.491898	51.273865	-12.670976	-2.426433	-18.589836	-5.771618	41.444057	5.275316	14.385791	-13.571898	-2.388258	50.337589	-6.437392	-3.300026	-80.611023	-19.654459	-77.867004	81.550156	-41.063534	15.505470	-9.093705	0.354359	-2.374232	-24.136499	14.258599	19.240116	41.529240	-39.831059	72.924629	-68.759796	-26.371582	8.724416	-12.131645	-3.306618	-4.512273	2.445925	-3.172552	-13.198296	
-10.012223	18.040312	0.548025	7.585882	-18.039854	-23.543756	65.488976	-30.114632	49.823040	9.461090	122.240280	-48.195816	1.928217	-26.702271	-2.030553	-16.838322	-7.145826	0.842764	-17.603983	126.494598	51.280865	-12.694383	-2.408810	-18.612328	-5.705478	41.384972	5.263845	14.336934	-13.514809	-2.404349	50.334694	-6.420654	-3.262897	-80.606575	-19.649525	-77.904243	81.535698	-41.069664	15.524332	-9.135221	0.395971	-2.346394	-24.151529	14.280740	19.246868	41.563053	-39.816624	72.943039	-68.780952	-26.353758	8.714333	-12.173369	-3.202967	-4.441097	2.299036	-3.031614	-13.044602	
-10.008805	18.040855	0.547005	7.579315	-18.038746	-23.558693	65.482269	-30.122908	49.808071	9.473062	122.245605	-48.192757	1.918230	-26.713472	-2.028791	-16.838024	-7.147505	0.852068	-17.593477	126.493080	51.277004	-12.676627	-2.427235	-18.576677	-5.662892	41.334949	5.223935	14.313022	-13.461087	-2.396919	50.331383	-6.412315	-3.251425	-80.603645	-19.648733	-77.916489	81.536049	-41.092793	15.534280	-9.161737	0.437302	-2.309768	-24.156778	14.288333	19.247074	41.575912	-39.811756	72.951225	-68.787979	-26.340891	8.701080	-12.190517	-3.109811	-4.396326	2.260823	-3.003277	-12.988750	
-10.010030	18.037758	0.549294	7.559731	-18.035456	-23.603243	65.493355	-30.105261	49.803635	9.426083	122.252464	-48.143490	1.891722	-26.748957	-2.022982	-16.837421	-7.152479	0.879668	-17.561722	126.488510	51.265308	-12.675325	-2.428777	-18.574190	-5.629028	41.299362	5.237216	14.292764	-13.435248	-2.416011	50.318180	-6.388338	-3.237688	-80.588211	-19.665121	-77.945557	81.522377	-41.082859	15.556909	-9.180721	0.453558	-2.289230	-24.172647	14.311276	19.247702	41.611233	-39.806484	72.972923	-68.793205	-26.332132	8.705706	-12.224716	-3.003244	-4.368449	2.135199	-2.941583	-12.828961	
-10.006760	18.038052	0.548395	7.553230	-18.034363	-23.618052	65.488274	-30.111174	49.791004	9.436321	122.258163	-48.140648	1.883948	-26.760347	-2.021055	-16.837845	-7.154088	0.888550	-17.550297	126.486855	51.261108	-12.675325	-2.428777	-18.574190	-5.611540	41.282890	5.236708	14.282125	-13.421987	-2.423296	50.312897	-6.380238	-3.237185	-80.568542	-19.691008	-77.968513	81.512161	-41.074612	15.581877	-9.191241	0.463764	-2.280775	-24.177971	14.318974	19.247915	41.620968	-39.808914	72.978523	-68.791153	-26.329842	8.703820	-12.241431	-2.948401	-4.354268	2.165961	-2.931933	-12.829462	
-10.000845	18.034630	0.550050	7.534738	-18.031240	-23.660200	65.498543	-30.093950	49.787907	9.423278	122.282097	-48.122074	1.885108	-26.792641	-2.013583	-16.839121	-7.158659	0.913783	-17.517666	126.482155	51.249065	-12.681340	-2.422467	-18.586224	-5.626367	41.283493	5.285495	14.298781	-13.437814	-2.440121	50.296215	-6.354655	-3.235595	-80.556015	-19.707323	-77.983269	81.507774	-41.077633	15.598979	-9.166003	0.445972	-2.284386	-24.206450	14.332875	19.258217	41.651623	-39.816574	72.996185	-68.783188	-26.307791	8.701152	-12.196329	-2.858701	-4.355269	2.171770	-2.907548	-12.792982	
-9.995746	18.035181	0.549000	7.528659	-18.030209	-23.674076	65.491875	-30.098360	49.780682	9.435922	122.289726	-48.119518	1.885809	-26.802376	-2.011311	-16.839043	-7.160215	0.922357	-17.507668	126.480721	51.245407	-12.681340	-2.422467	-18.586224	-5.631256	41.283688	5.301555	14.304877	-13.443607	-2.446274	50.290108	-6.345295	-3.235014	-80.544067	-19.722958	-77.998192	81.504440	-41.083141	15.615932	-9.157511	0.441009	-2.286566	-24.216112	14.336224	19.262167	41.662193	-39.819221	73.002274	-68.780251	-26.299345	8.700952	-12.176700	-2.827823	-4.356664	2.186408	-2.898458	-12.791638	
-9.990561	18.032812	0.550401	7.510886	-18.027187	-23.714638	65.499779	-30.077763	49.787010	9.411714	122.306244	-48.087978	1.887836	-26.830687	-2.004685	-16.838005	-7.164834	0.947746	-17.479481	126.476662	51.235004	-12.681340	-2.422467	-18.586224	-5.635612	41.269691	5.331223	14.319266	-13.444201	-2.458519	50.271198	-6.316272	-3.233209	-80.533897	-19.737566	-78.013664	81.501892	-41.091427	15.631421	-9.142343	0.446164	-2.283186	-24.240738	14.338977	19.274166	41.691841	-39.825573	73.007500	-68.771309	-26.284855	8.702763	-12.121375	-2.737721	-4.351314	2.165151	-2.932482	-12.775879	
-9.986227	18.033661	0.549550	7.505049	-18.026188	-23.727974	65.492584	-30.079433	49.785042	9.415416	122.310196	-48.076942	1.888463	-26.839445	-2.002639	-16.837599	-7.166369	0.956125	-17.470308	126.475349	51.231632	-12.681340	-2.422467	-18.586224	-5.630489	41.253979	5.327568	14.321751	-13.431204	-2.456635	50.264767	-6.306406	-3.232597	-80.530609	-19.750179	-78.032028	81.498283	-41.101315	15.639684	-9.144165	0.461525	-2.272531	-24.245750	14.336044	19.277773	41.700966	-39.827225	73.005676	-68.768349	-26.282701	8.703901	-12.107727	-2.698443	-4.337716	2.163683	-2.936528	-12.766605	
